<svg xmlns="http://www.w3.org/2000/svg" viewBox="0 0 777.52 789"><defs><style>.d,.e{stroke-width:8.01px;}.d,.e,.f{stroke:#231f20;}.d,.e,.f,.g{stroke-miterlimit:10;}.d,.f{fill:none;}.e,.h{fill:#1f2e56;}.i{fill:#3a333e;}.f{stroke-width:10.37px;}.g{fill:#e6ddcf;stroke:#393a3a;stroke-width:12.44px;}.j{fill:#42286a;}.k{fill:#eaa838;}.l{fill:#231f20;}</style></defs><g id="a"/><g id="b"><g id="c"><ellipse class="g" cx="388.76" cy="394.5" rx="382.54" ry="388.28"/><g><g><g><path class="e" d="M371.78,249.6v21.93h-47.33v-21.93c0-14.61-7.89-21.93-23.67-21.93s-23.67,7.31-23.67,21.93v175.41c0,14.62,7.89,21.93,23.67,21.93s23.67-7.31,23.67-21.93v-21.93h47.33v21.93c0,43.85-23.67,65.78-71,65.78s-71-21.93-71-65.78V249.6c0-43.85,23.67-65.78,71-65.78s71,21.93,71,65.78Z"/><path class="e" d="M440.89,425.01v-21.93h47.33v21.93c0,14.62,7.89,21.93,23.67,21.93s23.67-7.31,23.67-21.93v-43.85c0-14.61-7.89-21.93-23.67-21.93-47.33,0-71-21.93-71-65.78v-43.85c0-43.85,23.67-65.78,71-65.78s71,21.93,71,65.78v21.93h-47.33v-21.93c0-14.61-7.89-21.93-23.67-21.93s-23.67,7.31-23.67,21.93v43.85c0,14.62,7.89,21.93,23.67,21.93,47.33,0,71,21.93,71,65.78v43.85c0,43.85-23.67,65.78-71,65.78s-71-21.93-71-65.78Z"/></g><g><path class="e" d="M371.78,249.6v21.93h-47.33v-21.93c0-14.61-7.89-21.93-23.67-21.93s-23.67,7.31-23.67,21.93v175.41c0,14.62,7.89,21.93,23.67,21.93s23.67-7.31,23.67-21.93v-21.93h47.33v21.93c0,43.85-23.67,65.78-71,65.78s-71-21.93-71-65.78V249.6c0-43.85,23.67-65.78,71-65.78s71,21.93,71,65.78Z"/><path class="e" d="M440.89,425.01v-21.93h47.33v21.93c0,14.62,7.89,21.93,23.67,21.93s23.67-7.31,23.67-21.93v-43.85c0-14.61-7.89-21.93-23.67-21.93-47.33,0-71-21.93-71-65.78v-43.85c0-43.85,23.67-65.78,71-65.78s71,21.93,71,65.78v21.93h-47.33v-21.93c0-14.61-7.89-21.93-23.67-21.93s-23.67,7.31-23.67,21.93v43.85c0,14.62,7.89,21.93,23.67,21.93,47.33,0,71,21.93,71,65.78v43.85c0,43.85-23.67,65.78-71,65.78s-71-21.93-71-65.78Z"/></g><g><g><path class="h" d="M371.78,249.6v21.93h-47.33v-21.93c0-14.61-7.89-21.93-23.67-21.93s-23.67,7.31-23.67,21.93v175.41c0,14.62,7.89,21.93,23.67,21.93s23.67-7.31,23.67-21.93v-21.93h47.33v21.93c0,43.85-23.67,65.78-71,65.78s-71-21.93-71-65.78V249.6c0-43.85,23.67-65.78,71-65.78s71,21.93,71,65.78Z"/><path class="d" d="M371.78,249.6v21.93h-47.33v-21.93c0-14.61-7.89-21.93-23.67-21.93s-23.67,7.31-23.67,21.93v175.41c0,14.62,7.89,21.93,23.67,21.93s23.67-7.31,23.67-21.93v-21.93h47.33v21.93c0,43.85-23.67,65.78-71,65.78s-71-21.93-71-65.78V249.6c0-43.85,23.67-65.78,71-65.78s71,21.93,71,65.78Z"/></g><g><path class="h" d="M440.89,425.01v-21.93h47.33v21.93c0,14.62,7.89,21.93,23.67,21.93s23.67-7.31,23.67-21.93v-43.85c0-14.61-7.89-21.93-23.67-21.93-47.33,0-71-21.93-71-65.78v-43.85c0-43.85,23.67-65.78,71-65.78s71,21.93,71,65.78v21.93h-47.33v-21.93c0-14.61-7.89-21.93-23.67-21.93s-23.67,7.31-23.67,21.93v43.85c0,14.62,7.89,21.93,23.67,21.93,47.33,0,71,21.93,71,65.78v43.85c0,43.85-23.67,65.78-71,65.78s-71-21.93-71-65.78Z"/><path class="d" d="M440.89,425.01v-21.93h47.33v21.93c0,14.62,7.89,21.93,23.67,21.93s23.67-7.31,23.67-21.93v-43.85c0-14.61-7.89-21.93-23.67-21.93-47.33,0-71-21.93-71-65.78v-43.85c0-43.85,23.67-65.78,71-65.78s71,21.93,71,65.78v21.93h-47.33v-21.93c0-14.61-7.89-21.93-23.67-21.93s-23.67,7.31-23.67,21.93v43.85c0,14.62,7.89,21.93,23.67,21.93,47.33,0,71,21.93,71,65.78v43.85c0,43.85-23.67,65.78-71,65.78s-71-21.93-71-65.78Z"/></g></g></g><g><g><path class="l" d="M287.85,178.58c5.02-7.49,10.29-8.96,12.4-9.34,3.55-.65,8.02,1.4,17.21,4.45,3.8,1.26,8.08,3.01,13.75,5.86,7.77,3.9,13.38,8.08,16.12,10.14,3.31,2.48,4.67,3.93,4.71,3.91,.13-.06-2.61-3-7.61-4.72-4.61-1.58-10.35-1.87-11.09-.85-.19,.26,.06,.63,.43,1-15.3-3.48-30.6-6.96-45.9-10.44Z"/><polygon class="l" points="321.21 276.32 292.7 258.8 321.21 258.8 321.21 276.32"/><path class="l" d="M347.32,385.44l29.19,15.02c-10.65,.39-21.3,.79-31.95,1.18,.92-5.4,1.84-10.8,2.76-16.2Z"/></g><g><path class="k" d="M344.52,234.97v21.93h-47.33v-21.93c0-14.61-7.89-21.93-23.67-21.93s-23.67,7.31-23.67,21.93v175.41c0,14.62,7.89,21.93,23.67,21.93s23.67-7.31,23.67-21.93v-21.93h47.33v21.93c0,43.85-23.67,65.78-71,65.78s-71-21.93-71-65.78V234.97c0-43.85,23.67-65.78,71-65.78s71,21.93,71,65.78Z"/><path class="f" d="M344.52,234.97v21.93h-47.33v-21.93c0-14.61-7.89-21.93-23.67-21.93s-23.67,7.31-23.67,21.93v175.41c0,14.62,7.89,21.93,23.67,21.93s23.67-7.31,23.67-21.93v-21.93h47.33v21.93c0,43.85-23.67,65.78-71,65.78s-71-21.93-71-65.78V234.97c0-43.85,23.67-65.78,71-65.78s71,21.93,71,65.78Z"/></g><g><polygon class="l" points="532.53 274.32 504.02 258.8 532.53 258.8 532.53 274.32"/><path class="l" d="M500.2,169.76c10.76,3.27,15.27,4.11,15.56,3.34,.37-.98-7.12-4.31-6.78-5.17,.4-1.01,11.93,1.8,23.45,6.76,19.89,8.57,34.28,21.19,33.45,22.54-.79,1.28-15.94-6.88-16.79-5.35-.1,.17-.02,.48,.44,1.03-16.44-7.72-32.88-15.43-49.32-23.15Z"/><path class="l" d="M463.19,386.2c9.08,4.83,18.17,9.65,27.25,14.48-9.29,.32-18.59,.64-27.88,.97l.63-15.44Z"/></g><g><path class="k" d="M413.64,410.37v-21.93h47.33v21.93c0,14.62,7.89,21.93,23.67,21.93s23.67-7.31,23.67-21.93v-43.85c0-14.61-7.89-21.93-23.67-21.93-47.33,0-71-21.93-71-65.78v-43.85c0-43.85,23.67-65.78,71-65.78s71,21.93,71,65.78v21.93h-47.33v-21.93c0-14.61-7.89-21.93-23.67-21.93s-23.67,7.31-23.67,21.93v43.85c0,14.62,7.89,21.93,23.67,21.93,47.33,0,71,21.93,71,65.78v43.85c0,43.85-23.67,65.78-71,65.78s-71-21.93-71-65.78Z"/><path class="f" d="M413.64,410.37v-21.93h47.33v21.93c0,14.62,7.89,21.93,23.67,21.93s23.67-7.31,23.67-21.93v-43.85c0-14.61-7.89-21.93-23.67-21.93-47.33,0-71-21.93-71-65.78v-43.85c0-43.85,23.67-65.78,71-65.78s71,21.93,71,65.78v21.93h-47.33v-21.93c0-14.61-7.89-21.93-23.67-21.93s-23.67,7.31-23.67,21.93v43.85c0,14.62,7.89,21.93,23.67,21.93,47.33,0,71,21.93,71,65.78v43.85c0,43.85-23.67,65.78-71,65.78s-71-21.93-71-65.78Z"/></g></g></g><path class="i" d="M40.84,316.21l101.15-49.67c6.34,10.77,12.68,21.53,19.02,32.3-22.47,11.97-44.93,23.94-67.4,35.91,19.29,13.55,38.57,27.11,57.86,40.66-6.71,9.91-13.43,19.83-20.14,29.74l-90.48-51.87v-37.07Z"/><path class="i" d="M739.77,353.28l-90.48,51.87c-6.71-9.91-13.43-19.83-20.14-29.74,19.29-13.55,38.57-27.11,57.86-40.66-22.47-11.97-44.93-23.94-67.4-35.91,6.34-10.77,12.68-21.53,19.02-32.3l101.15,49.67v37.07Z"/></g><g><path class="l" d="M102.37,593.33v-24.13c0-6.09,4.17-10.32,10.32-10.32s10.32,4.23,10.32,10.32v5.1h-6.47v-5.1c0-2.55-1.56-4.1-3.79-4.1s-3.79,1.55-3.79,4.1v24.13c0,2.55,1.56,4.1,3.79,4.1s3.79-1.55,3.79-4.1v-6.22h6.47v6.22c0,6.09-4.17,10.32-10.32,10.32s-10.32-4.23-10.32-10.32Z"/><path class="l" d="M128.74,593.14v-23.76c0-6.28,4.23-10.51,10.57-10.51s10.57,4.23,10.57,10.51v23.76c0,6.28-4.23,10.51-10.57,10.51s-10.57-4.23-10.57-10.51Zm14.55,0v-23.76c0-2.74-1.55-4.29-3.98-4.29s-3.98,1.55-3.98,4.29v23.76c0,2.74,1.55,4.29,3.98,4.29s3.98-1.55,3.98-4.29Z"/><path class="l" d="M186.52,559.5v43.54h-6.59v-29.85l-6.16,29.85h-4.6l-6.16-29.85v29.85h-6.47v-43.54h9.33l5.72,27.8,5.47-27.8h9.45Z"/><path class="l" d="M193.74,559.5h10.32c6.28,0,10.32,4.1,10.32,10.39v5.1c0,6.28-4.04,10.39-10.32,10.39h-3.73v17.66h-6.59v-43.54Zm10.01,19.65c2.55,0,4.04-1.49,4.04-4.04v-5.35c0-2.55-1.49-4.04-4.04-4.04h-3.42v13.43h3.42Z"/><path class="l" d="M219.67,593.45v-33.96h6.59v33.96c0,2.55,1.55,3.98,3.67,3.98s3.67-1.43,3.67-3.98v-33.96h6.47v33.96c0,6.09-4.1,10.2-10.14,10.2s-10.26-4.11-10.26-10.2Z"/><path class="l" d="M244.92,559.5h21.02v6.22h-7.21v37.32h-6.59v-37.32h-7.21v-6.22Z"/><path class="l" d="M271.05,559.5h18.72v6.22h-12.13v12.13h9.64v6.22h-9.64v12.75h12.13v6.22h-18.72v-43.54Z"/><path class="l" d="M310.11,603.03l-4.79-17.97h-3.42v17.97h-6.59v-43.54h10.32c6.28,0,10.32,4.1,10.32,10.39v4.79c0,4.04-1.68,7.15-4.54,8.89l5.54,19.47h-6.84Zm-8.21-24.19h3.42c2.55,0,4.04-1.49,4.04-4.04v-5.04c0-2.55-1.49-4.04-4.04-4.04h-3.42v13.12Z"/><path class="l" d="M333.31,592.96v-1.56l6.34-.68v1.62c0,3.17,1.62,5.1,4.23,5.1s4.23-1.62,4.23-4.17c0-2.74-1.12-4.73-6.03-9.39-6.53-6.16-8.4-9.52-8.4-14.3,0-6.47,3.73-10.7,10.01-10.7s10.01,4.23,10.01,10.76v1.12l-6.34,.68v-1.24c0-3.36-1.31-5.1-3.61-5.1s-3.61,1.43-3.61,4.17,1.37,4.73,6.03,9.39c6.34,6.34,8.4,9.52,8.4,14.3,0,6.22-4.35,10.7-10.64,10.7s-10.64-4.48-10.64-10.7Z"/><path class="l" d="M359.62,593.33v-24.13c0-6.09,4.17-10.32,10.32-10.32s10.32,4.23,10.32,10.32v5.1h-6.47v-5.1c0-2.55-1.56-4.1-3.79-4.1s-3.79,1.55-3.79,4.1v24.13c0,2.55,1.56,4.1,3.79,4.1s3.79-1.55,3.79-4.1v-6.22h6.47v6.22c0,6.09-4.17,10.32-10.32,10.32s-10.32-4.23-10.32-10.32Z"/><path class="l" d="M386.3,559.5h6.59v43.54h-6.59v-43.54Z"/><path class="l" d="M400.11,559.5h18.72v6.22h-12.13v12.13h9.64v6.22h-9.64v12.75h12.13v6.22h-18.72v-43.54Z"/><path class="l" d="M424.36,559.5h7.28l8.4,29.23v-29.23h6.47v43.54h-6.97l-8.71-27.86v27.86h-6.47v-43.54Z"/><path class="l" d="M453.16,593.33v-24.13c0-6.09,4.17-10.32,10.32-10.32s10.32,4.23,10.32,10.32v5.1h-6.47v-5.1c0-2.55-1.55-4.1-3.79-4.1s-3.79,1.55-3.79,4.1v24.13c0,2.55,1.55,4.1,3.79,4.1s3.79-1.55,3.79-4.1v-6.22h6.47v6.22c0,6.09-4.17,10.32-10.32,10.32s-10.32-4.23-10.32-10.32Z"/><path class="l" d="M479.84,559.5h18.72v6.22h-12.13v12.13h9.64v6.22h-9.64v12.75h12.13v6.22h-18.72v-43.54Z"/><path class="l" d="M515.04,592.96v-1.56l6.34-.68v1.62c0,3.17,1.62,5.1,4.23,5.1s4.23-1.62,4.23-4.17c0-2.74-1.12-4.73-6.03-9.39-6.53-6.16-8.4-9.52-8.4-14.3,0-6.47,3.73-10.7,10.01-10.7s10.01,4.23,10.01,10.76v1.12l-6.34,.68v-1.24c0-3.36-1.31-5.1-3.61-5.1s-3.61,1.43-3.61,4.17,1.37,4.73,6.03,9.39c6.34,6.34,8.4,9.52,8.4,14.3,0,6.22-4.35,10.7-10.63,10.7s-10.64-4.48-10.64-10.7Z"/><path class="l" d="M541.35,593.14v-23.76c0-6.28,4.23-10.51,10.57-10.51s10.57,4.23,10.57,10.51v23.76c0,6.28-4.23,10.51-10.57,10.51s-10.57-4.23-10.57-10.51Zm14.55,0v-23.76c0-2.74-1.56-4.29-3.98-4.29s-3.98,1.55-3.98,4.29v23.76c0,2.74,1.55,4.29,3.98,4.29s3.98-1.55,3.98-4.29Z"/><path class="l" d="M568.6,593.33v-24.13c0-6.09,4.17-10.32,10.32-10.32s10.32,4.23,10.32,10.32v5.1h-6.47v-5.1c0-2.55-1.55-4.1-3.79-4.1s-3.79,1.55-3.79,4.1v24.13c0,2.55,1.55,4.1,3.79,4.1s3.79-1.55,3.79-4.1v-6.22h6.47v6.22c0,6.09-4.17,10.32-10.32,10.32s-10.32-4.23-10.32-10.32Z"/><path class="l" d="M595.28,559.5h6.59v43.54h-6.59v-43.54Z"/><path class="l" d="M609.09,559.5h18.72v6.22h-12.13v12.13h9.64v6.22h-9.64v12.75h12.13v6.22h-18.72v-43.54Z"/><path class="l" d="M631.23,559.5h21.02v6.22h-7.21v37.32h-6.59v-37.32h-7.21v-6.22Z"/><path class="l" d="M679.24,559.5l-8.83,25.31v18.22h-6.59v-18.22l-8.83-25.31h7.03l5.1,16.61,5.22-16.61h6.9Z"/></g><g><path class="j" d="M349.38,661.77v-33.96h6.59v33.96c0,2.55,1.55,3.98,3.67,3.98s3.67-1.43,3.67-3.98v-33.96h6.47v33.96c0,6.1-4.1,10.2-10.14,10.2s-10.26-4.1-10.26-10.2Z"/><path class="j" d="M375.25,661.28v-1.56l6.34-.68v1.62c0,3.17,1.62,5.1,4.23,5.1s4.23-1.62,4.23-4.17c0-2.74-1.12-4.73-6.03-9.39-6.53-6.16-8.4-9.52-8.4-14.3,0-6.47,3.73-10.7,10.01-10.7s10.01,4.23,10.01,10.76v1.12l-6.34,.68v-1.24c0-3.36-1.31-5.1-3.61-5.1s-3.61,1.43-3.61,4.17,1.37,4.73,6.03,9.39c6.34,6.34,8.4,9.52,8.4,14.31,0,6.22-4.35,10.7-10.64,10.7s-10.63-4.48-10.63-10.7Z"/><path class="j" d="M432.1,627.82v43.54h-6.59v-29.85l-6.16,29.85h-4.6l-6.16-29.85v29.85h-6.47v-43.54h9.33l5.72,27.8,5.47-27.8h9.45Z"/></g></g></svg>